<?xml version="1.0" encoding="utf-8"?>
<!-- Generator: Adobe Illustrator 19.2.0, SVG Export Plug-In . SVG Version: 6.00 Build 0)  -->
<svg version="1.1" id="Layer_1" xmlns="http://www.w3.org/2000/svg" xmlns:xlink="http://www.w3.org/1999/xlink" x="0px" y="0px"
	 viewBox="0 0 1920 1080" style="enable-background:new 0 0 1920 1080;" xml:space="preserve">
<style type="text/css">
	.st0{fill:#808080;}
	.st1{fill:#4D4D4D;}
	.st2{fill:#999999;}
	.st3{fill:#CCCCCC;}
	.st4{fill:#E6E6E6;}
	.st5{fill:#666666;}
	.st6{fill:#FFFFFF;}
	.st7{fill:#F2F2F2;}
	.st8{fill:#F8C09D;}
	.st9{fill:#1B965B;}
	.st10{fill:#14844C;}
	.st11{fill:#1561A0;}
	.st12{fill:#22B573;}
	.st13{fill:#065082;}
	.st14{fill:#F6AE8D;}
	.st15{fill:#333333;}
	.st16{fill:#EF937E;}
</style>
<g>
	<path class="st0" d="M599.6,743.7h759.8v74.5H568.9c-13.4,0-22-14.3-15.7-26.2l16.3-30.3C575.5,750.6,587.1,743.7,599.6,743.7z"/>
	<path class="st1" d="M1340.4,899l-749,0.9l3.3-99.7c0.4-11.7,10-21,21.6-21l728.1-0.9L1340.4,899z"/>
	<path class="st1" d="M662.8,991.3h-18c-8.3,0-15-6.7-15-15v-49.9c0-2.5,2.1-4.6,4.6-4.6h38.9c2.5,0,4.6,2.1,4.6,4.6v49.9
		C677.8,984.6,671.1,991.3,662.8,991.3z"/>
	<path class="st0" d="M594.3,873.8h759.8v74.5H563.5c-13.4,0-22-14.3-15.7-26.2l16.3-30.3C570.1,880.7,581.7,873.8,594.3,873.8z"/>
	<path class="st2" d="M1354.1,948.3H621.3l17-26c8.1-12.4,22-20,36.9-20h679V948.3z"/>
	<path class="st1" d="M1354.1,991.3h-242c-23.7,0-43-19.3-43-43l0,0h285V991.3z"/>
	<polygon class="st3" points="1346.1,743.7 1279.8,442.6 1209.6,442.6 1275.9,743.7 	"/>
	<path class="st4" d="M1399.8,992.4h-31.7l-124-549.8h50.2l119.9,531.8C1416.3,983.6,1409.3,992.4,1399.8,992.4z"/>
	<path class="st5" d="M1193.4,468c-5.5,0-8.6-6.1-5.5-10.6L1315,276.5c2.4-3.5,6.4-5.6,10.6-5.6h23.1c5.2,0,8.3,5.8,5.5,10.1
		l-121.1,178.9c-3.4,5-9.1,8.1-15.2,8.1H1193.4z"/>
	<path class="st4" d="M1294.3,442.6l56.9-85.2c4.2-6.3,5.4-14,3.5-21.3l-10.7-39l-99.9,145.6H1294.3z"/>
	<path class="st3" d="M1266.5,416.4h-139.6c-4.6,0-8.9,1.8-12.2,5l-38.9,38.8c-11.2,6.1-6.8,17.9,0.1,24.8h0
		c6.8,6.8,17.9,6.8,24.7-0.1l33.4-33.6h132.4V416.4z"/>
	<path class="st4" d="M1296.5,416.4h-139.6c-4.6,0-8.9,1.8-12.2,5l-38.9,38.8c-6.8,6.9-6.8,17.9,0.1,24.8h0
		c6.8,6.8,17.9,6.8,24.7-0.1l33.4-33.6h132.4V416.4z"/>
	<path class="st6" d="M804.8,223.8"/>
	<g>
		<path class="st7" d="M530.1,635.6l-17.5,106.3l-10.9-1.1c0,0,0.6-25.2,4.8-55.7c4.5-32.7,11.8-51.8,11.8-51.8L530.1,635.6z"/>
		<path class="st8" d="M586.7,657.8l-11.4,24.6c0,0,129.5,57,168-16c33.1-62.7,67.5-135,67.5-135l-37.6-16.3c0,0-35.9,62.3-72,127.5
			C681.6,677.8,586.7,657.8,586.7,657.8z"/>
		<path class="st9" d="M765.7,508.2c33.3-26.3,80,7.8,65.1,47.5c-0.3,0.7-0.5,1.4-0.8,2.1c-26.9,70.6-51.1,103.7-51.1,103.7
			L683.3,619c0,0,25.5-58.3,54.2-86.6C744.6,525.3,754.7,516.9,765.7,508.2z"/>
		<polygon class="st10" points="697.2,590.8 794.2,636.5 787.2,648.6 690.5,603.8 		"/>
		<polygon class="st7" points="613.2,661.9 606.9,693.8 563.2,682.7 568.2,654.8 		"/>
		<polygon class="st11" points="603.8,660.4 597.5,691.2 588.5,688.8 594.8,659 		"/>
		<path class="st8" d="M962.1,782.3l25.6-12.4c0,0-21.6-59-47.9-117.9c-36.7-82.3-151.5-113.6-151.5-113.6l-16.6,40
			c0,0,81.5,34,121.6,87.8C932.6,718.7,962.1,782.3,962.1,782.3z"/>
		<path class="st12" d="M808,509.9c-44.1-15.7-78.5,40.4-44.2,72.3c0.7,0.6,1.4,1.3,2.1,1.9c56.9,51.1,86.9,77.3,86.9,77.3l81-66.2
			c0,0-45.8-46.5-81-66.2C841.9,522.8,825.4,516.1,808,509.9z"/>
		<polygon class="st9" points="840.9,651 921.6,583.3 910.1,572.6 829.1,640.5 		"/>
		<polygon class="st7" points="944.5,747.7 974,734.1 990.7,775.9 965.1,788.3 		"/>
		<polygon class="st11" points="948.8,756.2 977.5,743.2 980.8,751.9 953,764.3 		"/>
		<path class="st12" d="M785.8,589.7l-1.3-0.2c-41.1-6.7-68.8-45.9-62.1-87l0-0.2l150,24.6l0,0.2
			C865.7,568.2,826.9,596.5,785.8,589.7z"/>
		<path class="st7" d="M972,830.4l96.4-48.1l5.5,9.5c0,0-20.8,14.3-47.9,28.8c-29.1,15.5-48.9,20.8-48.9,20.8L972,830.4z"/>
		<path class="st11" d="M962.1,782.3c0,0,5,2.1,13.8-2.2c8.8-4.3,11.8-10.1,11.8-10.1s19,6,31.1,0c12.1-6,29.5-15.3,39.6-4.3
			c10.1,11,9.9,16.6,9.9,16.6s-21.3,14.8-47.6,27.9c-25.1,12.5-48.8,20.2-48.8,20.2s-5.2-8.7-9.3-21.4
			C958.7,796.3,962.1,782.3,962.1,782.3z"/>
		<path class="st7" d="M999.4,768.1c-1.9,0.8-2.4,3.2-1.1,4.7c1.6,1.8,2.1,2.3,2.8,5c0.4,1.5,0.6,2.7,0.7,3.6
			c0.2,1.8,1.9,2.9,3.6,2.5l0.5-0.1c1.6-0.4,2.6-2,2.2-3.6c-0.9-3.9-1.8-8.8-5.9-11.8C1001.5,767.8,1000.4,767.7,999.4,768.1
			L999.4,768.1z"/>
		<path class="st7" d="M1011.9,767.2c-1.9,0.8-2.4,3.2-1.1,4.7c1.6,1.8,2.1,2.3,2.8,5c0.4,1.5,0.6,2.7,0.7,3.6
			c0.2,1.8,1.9,2.9,3.6,2.5l0.5-0.1c1.6-0.4,2.6-2,2.2-3.6c-0.9-3.9-1.8-8.8-5.9-11.8C1014,766.9,1012.8,766.8,1011.9,767.2
			L1011.9,767.2z"/>
		<path class="st7" d="M1023.4,762.9c-1.9,0.8-2.4,3.2-1.1,4.7c1.6,1.8,2.1,2.3,2.8,5c0.4,1.5,0.6,2.7,0.7,3.6
			c0.2,1.8,1.9,2.9,3.6,2.5l0.5-0.1c1.6-0.4,2.6-2,2.2-3.6c-0.9-3.9-1.8-8.8-5.9-11.8C1025.5,762.6,1024.3,762.5,1023.4,762.9
			L1023.4,762.9z"/>
		<path class="st11" d="M574.8,655.9c0,0-4.6,2.8-6.3,12.5c-1.7,9.7,1.3,15.5,1.3,15.5s-16,11.9-18.3,25.2
			c-2.3,13.4-4.9,32.9-19.8,34.6s-19.3-1.7-19.3-1.7s0.5-25.9,5.3-54.9c4.6-27.7,12.2-51.4,12.2-51.4s10.1,0.9,22.8,5
			C565.5,644.9,574.8,655.9,574.8,655.9z"/>
		<path class="st7" d="M564.5,694.4c0.4-2-1.2-3.8-3.2-3.6c-2.4,0.3-3.1,0.4-5.7-0.6c-1.4-0.6-2.5-1.1-3.4-1.6
			c-1.5-0.9-3.5-0.2-4.2,1.5l-0.2,0.5c-0.6,1.5,0.1,3.3,1.6,3.9c3.7,1.5,8.2,3.7,13,2.1C563.5,696.2,564.3,695.4,564.5,694.4
			L564.5,694.4z"/>
		<path class="st7" d="M557.9,705c0.4-2-1.2-3.8-3.2-3.6c-2.4,0.3-3.1,0.4-5.7-0.6c-1.4-0.6-2.5-1.1-3.4-1.6
			c-1.5-0.9-3.5-0.2-4.2,1.5l-0.2,0.5c-0.6,1.5,0.1,3.3,1.6,3.9c3.7,1.5,8.2,3.7,13,2.1C556.9,706.9,557.7,706,557.9,705L557.9,705z
			"/>
		<path class="st7" d="M554.7,716.8c0.4-2-1.2-3.8-3.2-3.6c-2.4,0.3-3.1,0.4-5.7-0.6c-1.4-0.6-2.5-1.1-3.4-1.6
			c-1.5-0.9-3.5-0.2-4.2,1.5L538,713c-0.6,1.5,0.1,3.3,1.6,3.9c3.7,1.5,8.2,3.7,13,2.1C553.7,718.7,554.4,717.9,554.7,716.8
			L554.7,716.8z"/>
		<path class="st8" d="M852.4,341.2L852.4,341.2c-5.2,8.7-2.4,20.1,6.3,25.3c0,0,21.4,40.8,76,72.7c54.7,31.9,88.6,26.2,88.6,26.2
			c8.7,5.2,20.1,2.4,25.3-6.3v0c5.2-8.7,2.4-20.1-6.3-25.3c0,0-34.2,6.5-90.3-27.2c-56.1-33.7-74.4-71.7-74.4-71.7
			C869,329.6,857.7,332.5,852.4,341.2z"/>
		<path class="st13" d="M899.5,441l44.5-49.4c0,0-52.7-49.1-66.7-60.7c-20.4-17-56.9,6.4-38.4,40.1C850.1,391.4,899.5,441,899.5,441
			z"/>
		<g>
			<path class="st8" d="M1036.2,461.2l-2.5,11.1l34.6,7.9c3.1,0.7,6.1-1.2,6.8-4.3v0c0.7-3.1-1.2-6.1-4.3-6.8L1036.2,461.2z"/>
			<path class="st8" d="M1038.9,449.8l-2.1,11.2l42.1,8.1c3.1,0.6,6.1-1.4,6.7-4.5v0c0.6-3.1-1.4-6.1-4.5-6.7L1038.9,449.8z"/>
			<path class="st8" d="M1045,440.4l-0.9,11.3l42.8,3.5c3.1,0.3,5.9-2.1,6.1-5.2l0,0c0.3-3.1-2.1-5.9-5.2-6.1L1045,440.4z"/>
			<path class="st8" d="M1040.2,432.1l1.2,11.3l42.7-4.4c3.1-0.3,5.4-3.1,5.1-6.2v0c-0.3-3.1-3.1-5.4-6.2-5.1L1040.2,432.1z"/>
			<path class="st8" d="M1032.6,429.6l6.1,9.6l21.8-13.9c2.6-1.7,3.4-5.2,1.7-7.8l0,0c-1.7-2.6-5.2-3.4-7.8-1.7L1032.6,429.6z"/>
			<path class="st8" d="M1039.4,427.6l9,0.7c1.7,0.1,2.9,1.6,2.7,3.2l-3.3,39.5c-0.1,1.7-1.6,2.9-3.2,2.7l-9-0.7
				c-6.2-0.5-10.9-6-10.4-12.2l1.9-22.9C1027.7,431.7,1033.2,427.1,1039.4,427.6z"/>
		</g>
		<path class="st11" d="M838.1,310.9L838.1,310.9c37.5,6.1,50.8,35.3,48.9,89.2c-1.1,29.4-7,30.6-14.5,126.8
			c-0.1,1.4-24.2,15.9-78.2,5.7c-54-10.2-71.8-30.3-71.8-30.3l1-11.7c7-62.4,28.9-127,51.2-161.5
			C785.6,312.2,818.7,307.8,838.1,310.9z"/>
		<path class="st13" d="M879.2,341.8c-7.5-17.3-21.2-27.5-41.2-30.8v0c-8-1.3-17.9-1.3-27.8,0.2l-0.3,12.8
			c-0.5,20.1,15.7,37.2,35.7,37.7l0.4,0.1h0C860.4,361.8,873,353.9,879.2,341.8z"/>
		<path class="st8" d="M624.6,460.3L624.6,460.3c5.9,8.3,17.4,10.3,25.7,4.5c0,0,27.2-50.6,56.8-71.4s94.9-35.3,94.9-35.3
			c8.3-5.9,10.3-17.4,4.5-25.7l0,0c-5.9-8.3-17.4-10.3-25.7-4.5c0,0-64.2,13.6-94.3,34.8c-30.1,21.1-57.5,71.9-57.5,71.9
			C620.8,440.5,618.7,452,624.6,460.3z"/>
		<g>
			<path class="st8" d="M621.9,452.5l-7.2-8.8L587.2,466c-2.4,2-2.8,5.6-0.8,8l0,0c2,2.4,5.6,2.8,8,0.8L621.9,452.5z"/>
			<path class="st8" d="M629.3,461.7l-7.5-8.6l-32.4,28.2c-2.4,2.1-2.6,5.6-0.6,8l0,0c2.1,2.4,5.6,2.6,8,0.6L629.3,461.7z"/>
			<path class="st8" d="M632.9,472.2l-8.3-7.7L595.4,496c-2.1,2.3-2,5.9,0.3,8h0c2.3,2.1,5.9,2,8-0.3L632.9,472.2z"/>
			<path class="st8" d="M642.3,473.6l-9.6-6.1l-22.9,36.3c-1.7,2.7-0.9,6.2,1.8,7.8l0,0c2.7,1.7,6.2,0.9,7.8-1.8L642.3,473.6z"/>
			<path class="st8" d="M649,469.1l-11.3-1.1l-2.5,25.7c-0.3,3.1,2,5.9,5.1,6.2l0,0c3.1,0.3,5.9-2,6.2-5.1L649,469.1z"/>
			<path class="st8" d="M646.4,475.8l-6.2,6.6c-1.1,1.2-3,1.3-4.2,0.2l-29.1-27c-1.2-1.1-1.3-3-0.2-4.2l6.2-6.6
				c4.3-4.6,11.4-4.9,16-0.6l16.9,15.6C650.4,464,650.6,471.2,646.4,475.8z"/>
		</g>
		<path class="st13" d="M706.8,340.6l25.1,61.5c0,0,50.6-18.5,67.1-26.1c24.2-11,29.3-51.5-2.8-59.6
			C773.6,310.8,706.8,340.6,706.8,340.6z"/>
		<path class="st8" d="M871.1,326.2c-0.4,13.4-11.5,24.6-24.9,23.6h0l-0.2,0.2c-13.4-0.4-24.2-11.6-23.8-25l0.6-21.5l49,1.3
			L871.1,326.2z"/>
		<path class="st14" d="M822.2,319.5c9.4,4.3,19.3,6.8,28.7,7.1c6.6,0.2,13.4-0.7,20.2-2.6l0.4-15.5l-49-1.3L822.2,319.5z"/>
		<path class="st8" d="M848.4,315.5c-31.4-0.8-68.4-29.3-67.3-67.7l3.1-115.6l138.6,3.7l-3.1,115.6
			C918.6,289.9,896,316.8,848.4,315.5z"/>
		
			<rect x="766" y="183.5" transform="matrix(0.9996 2.704189e-02 -2.704189e-02 0.9996 5.7226 -21.0828)" class="st15" width="32.6" height="35.1"/>
		
			<ellipse transform="matrix(2.704189e-02 -0.9996 0.9996 2.704189e-02 543.9393 991.9986)" class="st8" cx="781.6" cy="216.6" rx="19.7" ry="19.7"/>
		<path class="st16" d="M777.5,219.2c0.1-3.9,3.3-6.9,7.2-6.8c1.1,0,2.1,0.3,3,0.8c-1.2-2.1-3.4-3.5-5.9-3.6
			c-3.9-0.1-7.1,2.9-7.2,6.8c-0.1,2.8,1.5,5.2,3.8,6.4C777.8,221.7,777.5,220.5,777.5,219.2z"/>
		<path class="st15" d="M795.7,128.9l0,0.3l-8.6-0.2c-10.5-0.3-19.3,7.8-19.6,18.3l0-0.2l-0.7,26.9l-0.6,22.1l32.6,0.9l0.3-10
			c0.2-6.7,5.5-11.8,12.2-11.7l97,2.6c12.7,0.3,23.3-9.8,23.7-22.5l1.2-46.2l-113.5-3.1C806.9,105.9,796.1,116.2,795.7,128.9z"/>
		<path class="st15" d="M795.7,128.9c-1.9-15.9,0.3-25,11.1-33.9c7-5.7,19.4-7.4,24-7.3c3,0.1,6.1,0.6,8.8,2.1
			c5.7,3.1,8.8,10.7,7.1,17.2c3.6-4.3,7.9-8,12.6-10.9c6-3.8,13.1-6.4,19.9-4.7c6.8,1.7,12.5,9.1,10.6,16.2c3.8-1.9,7-4.7,10.7-6.8
			c5.9-3.3,12.9-4.3,19.4-2.8c2.4,0.6,4.8,1.5,6.9,2.9c4.3,2.9,7,7.8,8.3,13c1.3,5.2,6.7,33.1-6.2,52c-1.6,2.4-12.4,0.3-15.2-0.1
			L795.7,128.9z"/>
		<rect x="767" y="161.8" class="st11" width="154" height="24"/>
		
			<ellipse transform="matrix(0.3619 -0.9322 0.9322 0.3619 312.6826 995.3926)" class="st16" cx="883.5" cy="269.3" rx="10.3" ry="6.4"/>
		<path class="st16" d="M880.5,229.8l-0.4,14.3c0,0.6,0.8,1.2,1.4,1.2l8.4,0.2c2.3,0.1,3.6-2.6,2.2-4.4l-9.4-12
			C882,228.3,880.5,228.7,880.5,229.8z"/>
		
			<ellipse transform="matrix(2.704189e-02 -0.9996 0.9996 2.704189e-02 606.473 1064.696)" class="st15" cx="850.2" cy="220.8" rx="8" ry="4.5"/>
		
			<ellipse transform="matrix(2.704189e-02 -0.9996 0.9996 2.704189e-02 660.4879 1123.2814)" class="st15" cx="907.3" cy="222.3" rx="8" ry="4.5"/>
	</g>
	<path class="st5" d="M1403.6,991.4h-145v-2.9c0-66.5,53.9-120.4,120.4-120.4h24.7c8.1,0,14.7,6.6,14.7,14.7v93.8
		C1418.3,984.8,1411.7,991.4,1403.6,991.4z"/>
	<path class="st1" d="M1403.6,991.4h-125v0c0-58.6,47.5-106,106-106h33.7v91.3C1418.3,984.8,1411.7,991.4,1403.6,991.4z"/>
	<circle class="st0" cx="1386.8" cy="961.9" r="13.3"/>
	<path class="st6" d="M808.1,228.3c8.9,1.2,8-21.9,8-21.9S799.2,227.2,808.1,228.3"/>
	<path class="st6" d="M810.2,197.5c0,0-15.5,7.8-9.4,11.3S810.2,197.5,810.2,197.5z"/>
</g>
</svg>
